# xmcd
#
# Track frame offsets:
#  150
#  20772
#  34230
#  46840
#  61947
#  76572
#  91412
#  107125
#  123012
#  138632
#  153895
#
# Disc length: 2266 seconds
#
# Revision: 0
# Processed by: cddbd v1.4PL0 Copyright (c) Steve Scherf et al.
# Submitted via: AltoMP3_Maker 3.0
#
DISCID=8108d80b
DTITLE=JOAN SEBASTIAN - SECRETO DE AMOR
DYEAR=1900
DGENRE=
TTITLE0=SECRETO DE AMOR
TTITLE1=AMORCITO MIO
TTITLE2=CON BESOS
TTITLE3=UN IDIOTA
TTITLE4=RIMA
TTITLE5=EL TORO
TTITLE6=ME GUSTAS
TTITLE7=ANOCHE HABLAMOS
TTITLE8=UN VAQUERO EN LA CIUDAD
TTITLE9=JULIAN
TTITLE10=TATUAJES
EXTD=
EXTT0=
EXTT1=
EXTT2=
EXTT3=
EXTT4=
EXTT5=
EXTT6=
EXTT7=
EXTT8=
EXTT9=
EXTT10=
PLAYORDER=
